# xmcd
#
# Track frame offsets:
# 150
# 11872
# 28357
# 44090
# 72739
# 90874
# 106828
# 128475
# 146773
# 165435
# 181821
#
# Disc length: 2658 seconds
#
#
# Revision: 0
# Processed by: cddbd v1.5.1PL2 Copyright (c) Steve Scherf et al.
# Submitted via: FreeRIP 2.50 
#
DISCID=940a600b
DTITLE=Pinmonkey - Big Shiny Cars
DYEAR=2006
DGENRE=Country
TTITLE0=That Train Don't Run
TTITLE1=Down
TTITLE2=Coldest Fire In Town feat. Elizabeth Cook
TTITLE3=Fallin' All The Time
TTITLE4=Mountain Song
TTITLE5=Shady Grove
TTITLE6=Can't Have A Hand On Me
TTITLE7=Living Proof
TTITLE8=Wrapped
TTITLE9=Big Shiny Cars
TTITLE10=Love Sometimes
EXTD=
EXTT0=
EXTT1=
EXTT2=
EXTT3=
EXTT4=
EXTT5=
EXTT6=
EXTT7=
EXTT8=
EXTT9=
EXTT10=
PLAYORDER=
